<mxfile host="app.diagrams.net" modified="2024-03-04T21:56:39.257Z" agent="Mozilla/5.0 (Windows NT 10.0; Win64; x64) AppleWebKit/537.36 (KHTML, like Gecko) Chrome/122.0.0.0 Safari/537.36" etag="e_gI3a1woJJpCwZu-Ddy" version="24.0.1" type="device">
  <diagram name="Page-1" id="Medhr9GFyUbLVrKzv1-r">
    <mxGraphModel dx="693" dy="1273" grid="1" gridSize="1" guides="1" tooltips="1" connect="1" arrows="1" fold="1" page="1" pageScale="1" pageWidth="850" pageHeight="1100" math="0" shadow="0">
      <root>
        <mxCell id="0" />
        <mxCell id="1" parent="0" />
        <mxCell id="N_wnju_bdwXZR7Iq5atn-9" value="" style="group" vertex="1" connectable="0" parent="1">
          <mxGeometry x="2298" y="1172.0033333333333" width="164" height="82" as="geometry" />
        </mxCell>
        <mxCell id="N_wnju_bdwXZR7Iq5atn-10" value="Bejelentkezés/regisztráció" style="rounded=0;whiteSpace=wrap;html=1;" vertex="1" parent="N_wnju_bdwXZR7Iq5atn-9">
          <mxGeometry width="164" height="82" as="geometry" />
        </mxCell>
        <mxCell id="N_wnju_bdwXZR7Iq5atn-11" value="" style="endArrow=none;html=1;rounded=0;exitX=0;exitY=0.25;exitDx=0;exitDy=0;entryX=1;entryY=0.25;entryDx=0;entryDy=0;" edge="1" parent="N_wnju_bdwXZR7Iq5atn-9" source="N_wnju_bdwXZR7Iq5atn-10" target="N_wnju_bdwXZR7Iq5atn-10">
          <mxGeometry width="50" height="50" relative="1" as="geometry">
            <mxPoint x="54.66666666666667" y="68.33333333333333" as="sourcePoint" />
            <mxPoint x="123" as="targetPoint" />
          </mxGeometry>
        </mxCell>
        <mxCell id="N_wnju_bdwXZR7Iq5atn-12" value="" style="endArrow=none;html=1;rounded=0;exitX=0.25;exitY=0;exitDx=0;exitDy=0;" edge="1" parent="N_wnju_bdwXZR7Iq5atn-9" source="N_wnju_bdwXZR7Iq5atn-10">
          <mxGeometry width="50" height="50" relative="1" as="geometry">
            <mxPoint x="41" y="-6.833333333333334" as="sourcePoint" />
            <mxPoint x="41" y="20.5" as="targetPoint" />
          </mxGeometry>
        </mxCell>
        <mxCell id="N_wnju_bdwXZR7Iq5atn-13" value="&lt;font style=&quot;font-size: 11px;&quot;&gt;1&lt;/font&gt;" style="text;html=1;align=center;verticalAlign=middle;resizable=0;points=[];autosize=1;strokeColor=none;fillColor=none;" vertex="1" parent="N_wnju_bdwXZR7Iq5atn-9">
          <mxGeometry x="8" y="-5" width="30" height="30" as="geometry" />
        </mxCell>
        <mxCell id="N_wnju_bdwXZR7Iq5atn-15" value="" style="group" vertex="1" connectable="0" parent="1">
          <mxGeometry x="2218" y="824.0033333333333" width="164" height="82" as="geometry" />
        </mxCell>
        <mxCell id="N_wnju_bdwXZR7Iq5atn-16" value="Adatok módosítása" style="rounded=0;whiteSpace=wrap;html=1;" vertex="1" parent="N_wnju_bdwXZR7Iq5atn-15">
          <mxGeometry width="164" height="82" as="geometry" />
        </mxCell>
        <mxCell id="N_wnju_bdwXZR7Iq5atn-17" value="" style="endArrow=none;html=1;rounded=0;exitX=0;exitY=0.25;exitDx=0;exitDy=0;entryX=1;entryY=0.25;entryDx=0;entryDy=0;" edge="1" parent="N_wnju_bdwXZR7Iq5atn-15" source="N_wnju_bdwXZR7Iq5atn-16" target="N_wnju_bdwXZR7Iq5atn-16">
          <mxGeometry width="50" height="50" relative="1" as="geometry">
            <mxPoint x="54.66666666666667" y="68.33333333333333" as="sourcePoint" />
            <mxPoint x="123" as="targetPoint" />
          </mxGeometry>
        </mxCell>
        <mxCell id="N_wnju_bdwXZR7Iq5atn-18" value="" style="endArrow=none;html=1;rounded=0;exitX=0.25;exitY=0;exitDx=0;exitDy=0;" edge="1" parent="N_wnju_bdwXZR7Iq5atn-15" source="N_wnju_bdwXZR7Iq5atn-16">
          <mxGeometry width="50" height="50" relative="1" as="geometry">
            <mxPoint x="41" y="-6.833333333333334" as="sourcePoint" />
            <mxPoint x="41" y="20.5" as="targetPoint" />
          </mxGeometry>
        </mxCell>
        <mxCell id="N_wnju_bdwXZR7Iq5atn-19" value="&lt;font style=&quot;font-size: 11px;&quot;&gt;2&lt;/font&gt;" style="text;html=1;align=center;verticalAlign=middle;resizable=0;points=[];autosize=1;strokeColor=none;fillColor=none;" vertex="1" parent="N_wnju_bdwXZR7Iq5atn-15">
          <mxGeometry x="8" y="-5" width="30" height="30" as="geometry" />
        </mxCell>
        <mxCell id="N_wnju_bdwXZR7Iq5atn-21" value="" style="group" vertex="1" connectable="0" parent="1">
          <mxGeometry x="2463" y="1346.0033333333333" width="164" height="82" as="geometry" />
        </mxCell>
        <mxCell id="N_wnju_bdwXZR7Iq5atn-22" value="Kijelentkezés" style="rounded=0;whiteSpace=wrap;html=1;" vertex="1" parent="N_wnju_bdwXZR7Iq5atn-21">
          <mxGeometry width="164" height="82" as="geometry" />
        </mxCell>
        <mxCell id="N_wnju_bdwXZR7Iq5atn-23" value="" style="endArrow=none;html=1;rounded=0;exitX=0;exitY=0.25;exitDx=0;exitDy=0;entryX=1;entryY=0.25;entryDx=0;entryDy=0;" edge="1" parent="N_wnju_bdwXZR7Iq5atn-21" source="N_wnju_bdwXZR7Iq5atn-22" target="N_wnju_bdwXZR7Iq5atn-22">
          <mxGeometry width="50" height="50" relative="1" as="geometry">
            <mxPoint x="54.66666666666667" y="68.33333333333333" as="sourcePoint" />
            <mxPoint x="123" as="targetPoint" />
          </mxGeometry>
        </mxCell>
        <mxCell id="N_wnju_bdwXZR7Iq5atn-24" value="" style="endArrow=none;html=1;rounded=0;exitX=0.25;exitY=0;exitDx=0;exitDy=0;" edge="1" parent="N_wnju_bdwXZR7Iq5atn-21" source="N_wnju_bdwXZR7Iq5atn-22">
          <mxGeometry width="50" height="50" relative="1" as="geometry">
            <mxPoint x="41" y="-6.833333333333334" as="sourcePoint" />
            <mxPoint x="41" y="20.5" as="targetPoint" />
          </mxGeometry>
        </mxCell>
        <mxCell id="N_wnju_bdwXZR7Iq5atn-25" value="&lt;font style=&quot;font-size: 11px;&quot;&gt;13&lt;/font&gt;" style="text;html=1;align=center;verticalAlign=middle;resizable=0;points=[];autosize=1;strokeColor=none;fillColor=none;" vertex="1" parent="N_wnju_bdwXZR7Iq5atn-21">
          <mxGeometry x="7" y="-4" width="32" height="28" as="geometry" />
        </mxCell>
        <mxCell id="N_wnju_bdwXZR7Iq5atn-26" value="" style="group" vertex="1" connectable="0" parent="1">
          <mxGeometry x="2462" y="674" width="184" height="82" as="geometry" />
        </mxCell>
        <mxCell id="N_wnju_bdwXZR7Iq5atn-27" value="Poszt" style="rounded=0;whiteSpace=wrap;html=1;" vertex="1" parent="N_wnju_bdwXZR7Iq5atn-26">
          <mxGeometry width="164" height="82" as="geometry" />
        </mxCell>
        <mxCell id="N_wnju_bdwXZR7Iq5atn-28" value="" style="endArrow=none;html=1;rounded=0;exitX=0;exitY=0.25;exitDx=0;exitDy=0;entryX=1;entryY=0.25;entryDx=0;entryDy=0;" edge="1" parent="N_wnju_bdwXZR7Iq5atn-26" source="N_wnju_bdwXZR7Iq5atn-27" target="N_wnju_bdwXZR7Iq5atn-27">
          <mxGeometry width="50" height="50" relative="1" as="geometry">
            <mxPoint x="54.66666666666667" y="68.33333333333333" as="sourcePoint" />
            <mxPoint x="123" as="targetPoint" />
          </mxGeometry>
        </mxCell>
        <mxCell id="N_wnju_bdwXZR7Iq5atn-29" value="" style="endArrow=none;html=1;rounded=0;exitX=0.25;exitY=0;exitDx=0;exitDy=0;" edge="1" parent="N_wnju_bdwXZR7Iq5atn-26" source="N_wnju_bdwXZR7Iq5atn-27">
          <mxGeometry width="50" height="50" relative="1" as="geometry">
            <mxPoint x="41" y="-6.833333333333334" as="sourcePoint" />
            <mxPoint x="41" y="20.5" as="targetPoint" />
          </mxGeometry>
        </mxCell>
        <mxCell id="N_wnju_bdwXZR7Iq5atn-30" value="&lt;font style=&quot;font-size: 11px;&quot;&gt;5&lt;/font&gt;" style="text;html=1;align=center;verticalAlign=middle;resizable=0;points=[];autosize=1;strokeColor=none;fillColor=none;" vertex="1" parent="N_wnju_bdwXZR7Iq5atn-26">
          <mxGeometry x="10" y="-4" width="26" height="28" as="geometry" />
        </mxCell>
        <mxCell id="N_wnju_bdwXZR7Iq5atn-32" value="" style="group" vertex="1" connectable="0" parent="1">
          <mxGeometry x="2698" y="607" width="164" height="82" as="geometry" />
        </mxCell>
        <mxCell id="N_wnju_bdwXZR7Iq5atn-33" value="&lt;span style=&quot;text-wrap: nowrap;&quot;&gt;Hozzászólás&lt;/span&gt;" style="rounded=0;whiteSpace=wrap;html=1;" vertex="1" parent="N_wnju_bdwXZR7Iq5atn-32">
          <mxGeometry width="164" height="82" as="geometry" />
        </mxCell>
        <mxCell id="N_wnju_bdwXZR7Iq5atn-34" value="" style="endArrow=none;html=1;rounded=0;exitX=0;exitY=0.25;exitDx=0;exitDy=0;entryX=1;entryY=0.25;entryDx=0;entryDy=0;" edge="1" parent="N_wnju_bdwXZR7Iq5atn-32" source="N_wnju_bdwXZR7Iq5atn-33" target="N_wnju_bdwXZR7Iq5atn-33">
          <mxGeometry width="50" height="50" relative="1" as="geometry">
            <mxPoint x="54.66666666666667" y="68.33333333333333" as="sourcePoint" />
            <mxPoint x="123" as="targetPoint" />
          </mxGeometry>
        </mxCell>
        <mxCell id="N_wnju_bdwXZR7Iq5atn-35" value="" style="endArrow=none;html=1;rounded=0;exitX=0.25;exitY=0;exitDx=0;exitDy=0;" edge="1" parent="N_wnju_bdwXZR7Iq5atn-32" source="N_wnju_bdwXZR7Iq5atn-33">
          <mxGeometry width="50" height="50" relative="1" as="geometry">
            <mxPoint x="41" y="-6.833333333333334" as="sourcePoint" />
            <mxPoint x="41" y="20.5" as="targetPoint" />
          </mxGeometry>
        </mxCell>
        <mxCell id="N_wnju_bdwXZR7Iq5atn-36" value="&lt;font style=&quot;font-size: 11px;&quot;&gt;6&lt;/font&gt;" style="text;html=1;align=center;verticalAlign=middle;resizable=0;points=[];autosize=1;strokeColor=none;fillColor=none;" vertex="1" parent="N_wnju_bdwXZR7Iq5atn-32">
          <mxGeometry x="10" y="-4" width="26" height="28" as="geometry" />
        </mxCell>
        <mxCell id="N_wnju_bdwXZR7Iq5atn-38" value="" style="group" vertex="1" connectable="0" parent="1">
          <mxGeometry x="2965" y="746.5" width="164" height="82" as="geometry" />
        </mxCell>
        <mxCell id="N_wnju_bdwXZR7Iq5atn-39" value="Kedvelés" style="rounded=0;whiteSpace=wrap;html=1;" vertex="1" parent="N_wnju_bdwXZR7Iq5atn-38">
          <mxGeometry width="164" height="82" as="geometry" />
        </mxCell>
        <mxCell id="N_wnju_bdwXZR7Iq5atn-40" value="" style="endArrow=none;html=1;rounded=0;exitX=0;exitY=0.25;exitDx=0;exitDy=0;entryX=1;entryY=0.25;entryDx=0;entryDy=0;" edge="1" parent="N_wnju_bdwXZR7Iq5atn-38" source="N_wnju_bdwXZR7Iq5atn-39" target="N_wnju_bdwXZR7Iq5atn-39">
          <mxGeometry width="50" height="50" relative="1" as="geometry">
            <mxPoint x="54.66666666666667" y="68.33333333333333" as="sourcePoint" />
            <mxPoint x="123" as="targetPoint" />
          </mxGeometry>
        </mxCell>
        <mxCell id="N_wnju_bdwXZR7Iq5atn-41" value="" style="endArrow=none;html=1;rounded=0;exitX=0.25;exitY=0;exitDx=0;exitDy=0;" edge="1" parent="N_wnju_bdwXZR7Iq5atn-38" source="N_wnju_bdwXZR7Iq5atn-39">
          <mxGeometry width="50" height="50" relative="1" as="geometry">
            <mxPoint x="41" y="-6.833333333333334" as="sourcePoint" />
            <mxPoint x="41" y="20.5" as="targetPoint" />
          </mxGeometry>
        </mxCell>
        <mxCell id="N_wnju_bdwXZR7Iq5atn-42" value="&lt;font style=&quot;font-size: 11px;&quot;&gt;7&lt;/font&gt;" style="text;html=1;align=center;verticalAlign=middle;resizable=0;points=[];autosize=1;strokeColor=none;fillColor=none;" vertex="1" parent="N_wnju_bdwXZR7Iq5atn-38">
          <mxGeometry x="10" y="-4" width="26" height="28" as="geometry" />
        </mxCell>
        <mxCell id="N_wnju_bdwXZR7Iq5atn-44" value="" style="group" vertex="1" connectable="0" parent="1">
          <mxGeometry x="2961" y="846.5" width="164" height="82" as="geometry" />
        </mxCell>
        <mxCell id="N_wnju_bdwXZR7Iq5atn-45" value="Értesítés" style="rounded=0;whiteSpace=wrap;html=1;" vertex="1" parent="N_wnju_bdwXZR7Iq5atn-44">
          <mxGeometry width="164" height="82" as="geometry" />
        </mxCell>
        <mxCell id="N_wnju_bdwXZR7Iq5atn-46" value="" style="endArrow=none;html=1;rounded=0;exitX=0;exitY=0.25;exitDx=0;exitDy=0;entryX=1;entryY=0.25;entryDx=0;entryDy=0;" edge="1" parent="N_wnju_bdwXZR7Iq5atn-44" source="N_wnju_bdwXZR7Iq5atn-45" target="N_wnju_bdwXZR7Iq5atn-45">
          <mxGeometry width="50" height="50" relative="1" as="geometry">
            <mxPoint x="54.66666666666667" y="68.33333333333333" as="sourcePoint" />
            <mxPoint x="123" as="targetPoint" />
          </mxGeometry>
        </mxCell>
        <mxCell id="N_wnju_bdwXZR7Iq5atn-47" value="" style="endArrow=none;html=1;rounded=0;exitX=0.25;exitY=0;exitDx=0;exitDy=0;" edge="1" parent="N_wnju_bdwXZR7Iq5atn-44" source="N_wnju_bdwXZR7Iq5atn-45">
          <mxGeometry width="50" height="50" relative="1" as="geometry">
            <mxPoint x="41" y="-6.833333333333334" as="sourcePoint" />
            <mxPoint x="41" y="20.5" as="targetPoint" />
          </mxGeometry>
        </mxCell>
        <mxCell id="N_wnju_bdwXZR7Iq5atn-48" value="&lt;font style=&quot;font-size: 11px;&quot;&gt;9&lt;/font&gt;" style="text;html=1;align=center;verticalAlign=middle;resizable=0;points=[];autosize=1;strokeColor=none;fillColor=none;" vertex="1" parent="N_wnju_bdwXZR7Iq5atn-44">
          <mxGeometry x="10" y="-4" width="26" height="28" as="geometry" />
        </mxCell>
        <mxCell id="N_wnju_bdwXZR7Iq5atn-50" value="" style="group" vertex="1" connectable="0" parent="1">
          <mxGeometry x="2794" y="1142.5" width="164" height="82" as="geometry" />
        </mxCell>
        <mxCell id="N_wnju_bdwXZR7Iq5atn-51" value="Képkezelés" style="rounded=0;whiteSpace=wrap;html=1;" vertex="1" parent="N_wnju_bdwXZR7Iq5atn-50">
          <mxGeometry width="164" height="82" as="geometry" />
        </mxCell>
        <mxCell id="N_wnju_bdwXZR7Iq5atn-52" value="" style="endArrow=none;html=1;rounded=0;exitX=0;exitY=0.25;exitDx=0;exitDy=0;entryX=1;entryY=0.25;entryDx=0;entryDy=0;elbow=vertical;" edge="1" parent="N_wnju_bdwXZR7Iq5atn-50" source="N_wnju_bdwXZR7Iq5atn-51" target="N_wnju_bdwXZR7Iq5atn-51">
          <mxGeometry width="50" height="50" relative="1" as="geometry">
            <mxPoint x="54.66666666666667" y="68.33333333333333" as="sourcePoint" />
            <mxPoint x="123" as="targetPoint" />
          </mxGeometry>
        </mxCell>
        <mxCell id="N_wnju_bdwXZR7Iq5atn-53" value="" style="endArrow=none;html=1;rounded=0;exitX=0.25;exitY=0;exitDx=0;exitDy=0;" edge="1" parent="N_wnju_bdwXZR7Iq5atn-50" source="N_wnju_bdwXZR7Iq5atn-51">
          <mxGeometry width="50" height="50" relative="1" as="geometry">
            <mxPoint x="41" y="-6.833333333333334" as="sourcePoint" />
            <mxPoint x="41" y="20.5" as="targetPoint" />
          </mxGeometry>
        </mxCell>
        <mxCell id="N_wnju_bdwXZR7Iq5atn-54" value="&lt;font style=&quot;font-size: 11px;&quot;&gt;10&lt;/font&gt;" style="text;html=1;align=center;verticalAlign=middle;resizable=0;points=[];autosize=1;strokeColor=none;fillColor=none;" vertex="1" parent="N_wnju_bdwXZR7Iq5atn-50">
          <mxGeometry x="7" y="-4" width="32" height="28" as="geometry" />
        </mxCell>
        <mxCell id="N_wnju_bdwXZR7Iq5atn-56" value="" style="group" vertex="1" connectable="0" parent="1">
          <mxGeometry x="2794" y="1272.5" width="164" height="82" as="geometry" />
        </mxCell>
        <mxCell id="N_wnju_bdwXZR7Iq5atn-57" value="Albumkezelés" style="rounded=0;whiteSpace=wrap;html=1;" vertex="1" parent="N_wnju_bdwXZR7Iq5atn-56">
          <mxGeometry width="164" height="82" as="geometry" />
        </mxCell>
        <mxCell id="N_wnju_bdwXZR7Iq5atn-58" value="" style="endArrow=none;html=1;rounded=0;exitX=0;exitY=0.25;exitDx=0;exitDy=0;entryX=1;entryY=0.25;entryDx=0;entryDy=0;" edge="1" parent="N_wnju_bdwXZR7Iq5atn-56" source="N_wnju_bdwXZR7Iq5atn-57" target="N_wnju_bdwXZR7Iq5atn-57">
          <mxGeometry width="50" height="50" relative="1" as="geometry">
            <mxPoint x="54.66666666666667" y="68.33333333333333" as="sourcePoint" />
            <mxPoint x="123" as="targetPoint" />
          </mxGeometry>
        </mxCell>
        <mxCell id="N_wnju_bdwXZR7Iq5atn-59" value="" style="endArrow=none;html=1;rounded=0;exitX=0.25;exitY=0;exitDx=0;exitDy=0;" edge="1" parent="N_wnju_bdwXZR7Iq5atn-56" source="N_wnju_bdwXZR7Iq5atn-57">
          <mxGeometry width="50" height="50" relative="1" as="geometry">
            <mxPoint x="41" y="-6.833333333333334" as="sourcePoint" />
            <mxPoint x="41" y="20.5" as="targetPoint" />
          </mxGeometry>
        </mxCell>
        <mxCell id="N_wnju_bdwXZR7Iq5atn-60" value="&lt;font style=&quot;font-size: 11px;&quot;&gt;11&lt;/font&gt;" style="text;html=1;align=center;verticalAlign=middle;resizable=0;points=[];autosize=1;strokeColor=none;fillColor=none;" vertex="1" parent="N_wnju_bdwXZR7Iq5atn-56">
          <mxGeometry x="8" y="-4" width="30" height="28" as="geometry" />
        </mxCell>
        <mxCell id="N_wnju_bdwXZR7Iq5atn-62" value="" style="group" vertex="1" connectable="0" parent="1">
          <mxGeometry x="2521" y="854" width="164" height="82" as="geometry" />
        </mxCell>
        <mxCell id="N_wnju_bdwXZR7Iq5atn-63" value="Csoportkezelés" style="rounded=0;whiteSpace=wrap;html=1;" vertex="1" parent="N_wnju_bdwXZR7Iq5atn-62">
          <mxGeometry width="164" height="82" as="geometry" />
        </mxCell>
        <mxCell id="N_wnju_bdwXZR7Iq5atn-64" value="" style="endArrow=none;html=1;rounded=0;exitX=0;exitY=0.25;exitDx=0;exitDy=0;entryX=1;entryY=0.25;entryDx=0;entryDy=0;" edge="1" parent="N_wnju_bdwXZR7Iq5atn-62" source="N_wnju_bdwXZR7Iq5atn-63" target="N_wnju_bdwXZR7Iq5atn-63">
          <mxGeometry width="50" height="50" relative="1" as="geometry">
            <mxPoint x="54.66666666666667" y="68.33333333333333" as="sourcePoint" />
            <mxPoint x="123" as="targetPoint" />
          </mxGeometry>
        </mxCell>
        <mxCell id="N_wnju_bdwXZR7Iq5atn-65" value="" style="endArrow=none;html=1;rounded=0;exitX=0.25;exitY=0;exitDx=0;exitDy=0;" edge="1" parent="N_wnju_bdwXZR7Iq5atn-62" source="N_wnju_bdwXZR7Iq5atn-63">
          <mxGeometry width="50" height="50" relative="1" as="geometry">
            <mxPoint x="41" y="-6.833333333333334" as="sourcePoint" />
            <mxPoint x="41" y="20.5" as="targetPoint" />
          </mxGeometry>
        </mxCell>
        <mxCell id="N_wnju_bdwXZR7Iq5atn-66" value="&lt;font style=&quot;font-size: 11px;&quot;&gt;12&lt;/font&gt;" style="text;html=1;align=center;verticalAlign=middle;resizable=0;points=[];autosize=1;strokeColor=none;fillColor=none;" vertex="1" parent="N_wnju_bdwXZR7Iq5atn-62">
          <mxGeometry x="7" y="-4" width="32" height="28" as="geometry" />
        </mxCell>
        <mxCell id="N_wnju_bdwXZR7Iq5atn-68" value="" style="group" vertex="1" connectable="0" parent="1">
          <mxGeometry x="1878" y="1284" width="164" height="82" as="geometry" />
        </mxCell>
        <mxCell id="N_wnju_bdwXZR7Iq5atn-69" value="Ismerősök kezelése&amp;nbsp;" style="rounded=0;whiteSpace=wrap;html=1;" vertex="1" parent="N_wnju_bdwXZR7Iq5atn-68">
          <mxGeometry width="164" height="82" as="geometry" />
        </mxCell>
        <mxCell id="N_wnju_bdwXZR7Iq5atn-70" value="" style="endArrow=none;html=1;rounded=0;exitX=0;exitY=0.25;exitDx=0;exitDy=0;entryX=1;entryY=0.25;entryDx=0;entryDy=0;" edge="1" parent="N_wnju_bdwXZR7Iq5atn-68" source="N_wnju_bdwXZR7Iq5atn-69" target="N_wnju_bdwXZR7Iq5atn-69">
          <mxGeometry width="50" height="50" relative="1" as="geometry">
            <mxPoint x="54.66666666666667" y="68.33333333333333" as="sourcePoint" />
            <mxPoint x="123" as="targetPoint" />
          </mxGeometry>
        </mxCell>
        <mxCell id="N_wnju_bdwXZR7Iq5atn-71" value="" style="endArrow=none;html=1;rounded=0;exitX=0.25;exitY=0;exitDx=0;exitDy=0;" edge="1" parent="N_wnju_bdwXZR7Iq5atn-68" source="N_wnju_bdwXZR7Iq5atn-69">
          <mxGeometry width="50" height="50" relative="1" as="geometry">
            <mxPoint x="41" y="-6.833333333333334" as="sourcePoint" />
            <mxPoint x="41" y="20.5" as="targetPoint" />
          </mxGeometry>
        </mxCell>
        <mxCell id="N_wnju_bdwXZR7Iq5atn-72" value="&lt;font style=&quot;font-size: 11px;&quot;&gt;15&lt;/font&gt;" style="text;html=1;align=center;verticalAlign=middle;resizable=0;points=[];autosize=1;strokeColor=none;fillColor=none;" vertex="1" parent="N_wnju_bdwXZR7Iq5atn-68">
          <mxGeometry x="7" y="-4" width="32" height="28" as="geometry" />
        </mxCell>
        <mxCell id="N_wnju_bdwXZR7Iq5atn-73" value="" style="group" vertex="1" connectable="0" parent="1">
          <mxGeometry x="2767" y="846.5" width="164" height="82" as="geometry" />
        </mxCell>
        <mxCell id="N_wnju_bdwXZR7Iq5atn-74" value="Üzenet" style="rounded=0;whiteSpace=wrap;html=1;" vertex="1" parent="N_wnju_bdwXZR7Iq5atn-73">
          <mxGeometry width="164" height="82" as="geometry" />
        </mxCell>
        <mxCell id="N_wnju_bdwXZR7Iq5atn-75" value="" style="endArrow=none;html=1;rounded=0;exitX=0;exitY=0.25;exitDx=0;exitDy=0;entryX=1;entryY=0.25;entryDx=0;entryDy=0;" edge="1" parent="N_wnju_bdwXZR7Iq5atn-73" source="N_wnju_bdwXZR7Iq5atn-74" target="N_wnju_bdwXZR7Iq5atn-74">
          <mxGeometry width="50" height="50" relative="1" as="geometry">
            <mxPoint x="54.66666666666667" y="68.33333333333333" as="sourcePoint" />
            <mxPoint x="123" as="targetPoint" />
          </mxGeometry>
        </mxCell>
        <mxCell id="N_wnju_bdwXZR7Iq5atn-76" value="" style="endArrow=none;html=1;rounded=0;exitX=0.25;exitY=0;exitDx=0;exitDy=0;" edge="1" parent="N_wnju_bdwXZR7Iq5atn-73" source="N_wnju_bdwXZR7Iq5atn-74">
          <mxGeometry width="50" height="50" relative="1" as="geometry">
            <mxPoint x="41" y="-6.833333333333334" as="sourcePoint" />
            <mxPoint x="41" y="20.5" as="targetPoint" />
          </mxGeometry>
        </mxCell>
        <mxCell id="N_wnju_bdwXZR7Iq5atn-77" value="&lt;font style=&quot;font-size: 11px;&quot;&gt;8&lt;/font&gt;" style="text;html=1;align=center;verticalAlign=middle;resizable=0;points=[];autosize=1;strokeColor=none;fillColor=none;" vertex="1" parent="N_wnju_bdwXZR7Iq5atn-73">
          <mxGeometry x="10" y="-4" width="26" height="28" as="geometry" />
        </mxCell>
        <mxCell id="N_wnju_bdwXZR7Iq5atn-79" value="Felhasználó" style="ellipse;whiteSpace=wrap;html=1;" vertex="1" parent="1">
          <mxGeometry x="2028" y="954" width="120" height="80" as="geometry" />
        </mxCell>
        <mxCell id="N_wnju_bdwXZR7Iq5atn-80" value="Látogató" style="ellipse;whiteSpace=wrap;html=1;" vertex="1" parent="1">
          <mxGeometry x="2028" y="1174" width="120" height="80" as="geometry" />
        </mxCell>
        <mxCell id="N_wnju_bdwXZR7Iq5atn-81" value="Adminisztrátor" style="ellipse;whiteSpace=wrap;html=1;" vertex="1" parent="1">
          <mxGeometry x="2028" y="1404" width="120" height="80" as="geometry" />
        </mxCell>
        <mxCell id="N_wnju_bdwXZR7Iq5atn-82" value="" style="endArrow=classic;html=1;rounded=0;exitX=1;exitY=0.5;exitDx=0;exitDy=0;entryX=0.5;entryY=0;entryDx=0;entryDy=0;" edge="1" parent="1" source="N_wnju_bdwXZR7Iq5atn-79" target="N_wnju_bdwXZR7Iq5atn-10">
          <mxGeometry width="50" height="50" relative="1" as="geometry">
            <mxPoint x="2338" y="1004" as="sourcePoint" />
            <mxPoint x="2388" y="954" as="targetPoint" />
            <Array as="points">
              <mxPoint x="2380" y="994" />
            </Array>
          </mxGeometry>
        </mxCell>
        <mxCell id="N_wnju_bdwXZR7Iq5atn-83" value="" style="endArrow=classic;html=1;rounded=0;exitX=1;exitY=0;exitDx=0;exitDy=0;entryX=-0.003;entryY=0.181;entryDx=0;entryDy=0;entryPerimeter=0;" edge="1" parent="1" source="N_wnju_bdwXZR7Iq5atn-80" target="N_wnju_bdwXZR7Iq5atn-10">
          <mxGeometry width="50" height="50" relative="1" as="geometry">
            <mxPoint x="2148" y="1194" as="sourcePoint" />
            <mxPoint x="2298" y="1194.003333333333" as="targetPoint" />
          </mxGeometry>
        </mxCell>
        <mxCell id="N_wnju_bdwXZR7Iq5atn-84" value="" style="endArrow=classic;html=1;rounded=0;exitX=1;exitY=0.5;exitDx=0;exitDy=0;entryX=0.5;entryY=1;entryDx=0;entryDy=0;" edge="1" parent="1" source="N_wnju_bdwXZR7Iq5atn-81" target="N_wnju_bdwXZR7Iq5atn-10">
          <mxGeometry width="50" height="50" relative="1" as="geometry">
            <mxPoint x="2248" y="1514" as="sourcePoint" />
            <mxPoint x="2298" y="1464" as="targetPoint" />
            <Array as="points">
              <mxPoint x="2378" y="1444" />
            </Array>
          </mxGeometry>
        </mxCell>
        <mxCell id="N_wnju_bdwXZR7Iq5atn-85" value="" style="group" vertex="1" connectable="0" parent="1">
          <mxGeometry x="2318" y="924" width="157" height="30.000000000000057" as="geometry" />
        </mxCell>
        <mxCell id="N_wnju_bdwXZR7Iq5atn-86" value="&amp;nbsp;L1" style="html=1;dashed=0;whiteSpace=wrap;shape=mxgraph.dfd.dataStoreID;align=left;spacingLeft=3;points=[[0,0],[0.5,0],[1,0],[0,0.5],[1,0.5],[0,1],[0.5,1],[1,1]];" vertex="1" parent="N_wnju_bdwXZR7Iq5atn-85">
          <mxGeometry width="152" height="30" as="geometry" />
        </mxCell>
        <mxCell id="N_wnju_bdwXZR7Iq5atn-87" value="" style="endArrow=none;html=1;rounded=0;entryX=0.078;entryY=0.005;entryDx=0;entryDy=0;entryPerimeter=0;exitX=0.077;exitY=1.001;exitDx=0;exitDy=0;exitPerimeter=0;" edge="1" parent="N_wnju_bdwXZR7Iq5atn-85">
          <mxGeometry width="50" height="50" relative="1" as="geometry">
            <mxPoint x="4.699999999999932" y="30.000000000000057" as="sourcePoint" />
            <mxPoint x="4.7999999999999545" y="0.12000000000000455" as="targetPoint" />
          </mxGeometry>
        </mxCell>
        <mxCell id="N_wnju_bdwXZR7Iq5atn-88" value="Felhasználói adatok" style="text;html=1;align=center;verticalAlign=middle;resizable=0;points=[];autosize=1;strokeColor=none;fillColor=none;" vertex="1" parent="N_wnju_bdwXZR7Iq5atn-85">
          <mxGeometry x="27" width="130" height="30" as="geometry" />
        </mxCell>
        <mxCell id="N_wnju_bdwXZR7Iq5atn-89" value="Bejelentkezés" style="text;html=1;align=center;verticalAlign=middle;whiteSpace=wrap;rounded=0;" vertex="1" parent="1">
          <mxGeometry x="2228" y="966" width="60" height="30" as="geometry" />
        </mxCell>
        <mxCell id="N_wnju_bdwXZR7Iq5atn-90" value="Bejelentkezés" style="text;html=1;align=center;verticalAlign=middle;whiteSpace=wrap;rounded=0;" vertex="1" parent="1">
          <mxGeometry x="2198" y="1414" width="60" height="30" as="geometry" />
        </mxCell>
        <mxCell id="N_wnju_bdwXZR7Iq5atn-91" value="Regisztráció" style="text;html=1;align=center;verticalAlign=middle;whiteSpace=wrap;rounded=0;" vertex="1" parent="1">
          <mxGeometry x="2178" y="1156" width="60" height="30" as="geometry" />
        </mxCell>
        <mxCell id="N_wnju_bdwXZR7Iq5atn-92" value="" style="endArrow=classic;html=1;rounded=0;exitX=0.36;exitY=-0.004;exitDx=0;exitDy=0;exitPerimeter=0;entryX=1;entryY=1;entryDx=0;entryDy=0;" edge="1" parent="1" source="N_wnju_bdwXZR7Iq5atn-10" target="N_wnju_bdwXZR7Iq5atn-79">
          <mxGeometry width="50" height="50" relative="1" as="geometry">
            <mxPoint x="2328" y="1154" as="sourcePoint" />
            <mxPoint x="2378" y="1104" as="targetPoint" />
            <Array as="points">
              <mxPoint x="2358" y="1022" />
            </Array>
          </mxGeometry>
        </mxCell>
        <mxCell id="N_wnju_bdwXZR7Iq5atn-93" value="Sikeres/Sikertelen bejelentkezés" style="text;html=1;align=center;verticalAlign=middle;whiteSpace=wrap;rounded=0;" vertex="1" parent="1">
          <mxGeometry x="2228" y="1024" width="60" height="30" as="geometry" />
        </mxCell>
        <mxCell id="N_wnju_bdwXZR7Iq5atn-94" value="Sikeres/Sikertelen bejelentkezés" style="text;html=1;align=center;verticalAlign=middle;whiteSpace=wrap;rounded=0;" vertex="1" parent="1">
          <mxGeometry x="2208" y="1484" width="60" height="30" as="geometry" />
        </mxCell>
        <mxCell id="N_wnju_bdwXZR7Iq5atn-95" value="" style="endArrow=classic;html=1;rounded=0;exitX=0.615;exitY=0.998;exitDx=0;exitDy=0;entryX=1;entryY=1;entryDx=0;entryDy=0;exitPerimeter=0;" edge="1" parent="1" source="N_wnju_bdwXZR7Iq5atn-10" target="N_wnju_bdwXZR7Iq5atn-81">
          <mxGeometry width="50" height="50" relative="1" as="geometry">
            <mxPoint x="2448" y="1324" as="sourcePoint" />
            <mxPoint x="2218" y="1454" as="targetPoint" />
            <Array as="points">
              <mxPoint x="2398" y="1474" />
            </Array>
          </mxGeometry>
        </mxCell>
        <mxCell id="N_wnju_bdwXZR7Iq5atn-96" value="" style="endArrow=classic;html=1;rounded=0;exitX=0;exitY=0.5;exitDx=0;exitDy=0;entryX=1;entryY=0.5;entryDx=0;entryDy=0;" edge="1" parent="1" source="N_wnju_bdwXZR7Iq5atn-10" target="N_wnju_bdwXZR7Iq5atn-80">
          <mxGeometry width="50" height="50" relative="1" as="geometry">
            <mxPoint x="2228" y="1324" as="sourcePoint" />
            <mxPoint x="2278" y="1274" as="targetPoint" />
          </mxGeometry>
        </mxCell>
        <mxCell id="N_wnju_bdwXZR7Iq5atn-97" value="Sikeres/Sikertelen regisztráció" style="text;html=1;align=center;verticalAlign=middle;whiteSpace=wrap;rounded=0;" vertex="1" parent="1">
          <mxGeometry x="2188" y="1216" width="60" height="30" as="geometry" />
        </mxCell>
        <mxCell id="N_wnju_bdwXZR7Iq5atn-98" value="" style="endArrow=classic;html=1;rounded=0;exitX=0.61;exitY=-0.005;exitDx=0;exitDy=0;entryX=0.25;entryY=1;entryDx=0;entryDy=0;exitPerimeter=0;" edge="1" parent="1" source="N_wnju_bdwXZR7Iq5atn-10" target="N_wnju_bdwXZR7Iq5atn-16">
          <mxGeometry width="50" height="50" relative="1" as="geometry">
            <mxPoint x="2498" y="1154" as="sourcePoint" />
            <mxPoint x="2418" y="974" as="targetPoint" />
            <Array as="points">
              <mxPoint x="2398" y="964" />
              <mxPoint x="2259" y="964" />
            </Array>
          </mxGeometry>
        </mxCell>
        <mxCell id="N_wnju_bdwXZR7Iq5atn-99" value="" style="group" vertex="1" connectable="0" parent="1">
          <mxGeometry x="2573" y="1505" width="120" height="80" as="geometry" />
        </mxCell>
        <mxCell id="N_wnju_bdwXZR7Iq5atn-100" value="Adminisztrátor" style="ellipse;whiteSpace=wrap;html=1;" vertex="1" parent="N_wnju_bdwXZR7Iq5atn-99">
          <mxGeometry width="120" height="80" as="geometry" />
        </mxCell>
        <mxCell id="N_wnju_bdwXZR7Iq5atn-101" value="" style="endArrow=none;html=1;rounded=0;exitX=0.009;exitY=0.595;exitDx=0;exitDy=0;exitPerimeter=0;entryX=0.426;entryY=0.004;entryDx=0;entryDy=0;entryPerimeter=0;" edge="1" parent="N_wnju_bdwXZR7Iq5atn-99" source="N_wnju_bdwXZR7Iq5atn-100" target="N_wnju_bdwXZR7Iq5atn-100">
          <mxGeometry width="50" height="50" relative="1" as="geometry">
            <mxPoint y="50" as="sourcePoint" />
            <mxPoint x="50" as="targetPoint" />
          </mxGeometry>
        </mxCell>
        <mxCell id="N_wnju_bdwXZR7Iq5atn-102" value="" style="group" vertex="1" connectable="0" parent="1">
          <mxGeometry x="2413" y="1505" width="120" height="80" as="geometry" />
        </mxCell>
        <mxCell id="N_wnju_bdwXZR7Iq5atn-103" value="Felhasználó" style="ellipse;whiteSpace=wrap;html=1;" vertex="1" parent="N_wnju_bdwXZR7Iq5atn-102">
          <mxGeometry width="120" height="80" as="geometry" />
        </mxCell>
        <mxCell id="N_wnju_bdwXZR7Iq5atn-104" value="" style="endArrow=none;html=1;rounded=0;exitX=0.009;exitY=0.595;exitDx=0;exitDy=0;exitPerimeter=0;entryX=0.426;entryY=0.004;entryDx=0;entryDy=0;entryPerimeter=0;" edge="1" parent="N_wnju_bdwXZR7Iq5atn-102" source="N_wnju_bdwXZR7Iq5atn-103" target="N_wnju_bdwXZR7Iq5atn-103">
          <mxGeometry width="50" height="50" relative="1" as="geometry">
            <mxPoint y="50" as="sourcePoint" />
            <mxPoint x="50" as="targetPoint" />
          </mxGeometry>
        </mxCell>
        <mxCell id="N_wnju_bdwXZR7Iq5atn-105" value="" style="endArrow=classic;html=1;rounded=0;exitX=0.5;exitY=0;exitDx=0;exitDy=0;entryX=0.25;entryY=1;entryDx=0;entryDy=0;" edge="1" parent="1" source="N_wnju_bdwXZR7Iq5atn-103" target="N_wnju_bdwXZR7Iq5atn-22">
          <mxGeometry width="50" height="50" relative="1" as="geometry">
            <mxPoint x="2513" y="1498" as="sourcePoint" />
            <mxPoint x="2563" y="1448" as="targetPoint" />
            <Array as="points">
              <mxPoint x="2473" y="1468" />
              <mxPoint x="2504" y="1468" />
            </Array>
          </mxGeometry>
        </mxCell>
        <mxCell id="N_wnju_bdwXZR7Iq5atn-106" value="" style="endArrow=classic;html=1;rounded=0;exitX=0.5;exitY=0;exitDx=0;exitDy=0;entryX=0.75;entryY=1;entryDx=0;entryDy=0;" edge="1" parent="1" source="N_wnju_bdwXZR7Iq5atn-100" target="N_wnju_bdwXZR7Iq5atn-22">
          <mxGeometry width="50" height="50" relative="1" as="geometry">
            <mxPoint x="2563" y="1508" as="sourcePoint" />
            <mxPoint x="2613" y="1458" as="targetPoint" />
            <Array as="points">
              <mxPoint x="2633" y="1478" />
              <mxPoint x="2586" y="1478" />
            </Array>
          </mxGeometry>
        </mxCell>
        <mxCell id="N_wnju_bdwXZR7Iq5atn-107" value="" style="endArrow=classic;html=1;rounded=0;exitX=0.548;exitY=1.012;exitDx=0;exitDy=0;exitPerimeter=0;entryX=0.725;entryY=-0.006;entryDx=0;entryDy=0;entryPerimeter=0;" edge="1" parent="1" source="N_wnju_bdwXZR7Iq5atn-88" target="N_wnju_bdwXZR7Iq5atn-10">
          <mxGeometry width="50" height="50" relative="1" as="geometry">
            <mxPoint x="2428" y="1024" as="sourcePoint" />
            <mxPoint x="2478" y="974" as="targetPoint" />
          </mxGeometry>
        </mxCell>
        <mxCell id="N_wnju_bdwXZR7Iq5atn-108" value="" style="endArrow=classic;html=1;rounded=0;exitX=1.002;exitY=0.735;exitDx=0;exitDy=0;entryX=0.562;entryY=-0.015;entryDx=0;entryDy=0;entryPerimeter=0;exitPerimeter=0;" edge="1" parent="1" source="N_wnju_bdwXZR7Iq5atn-16" target="N_wnju_bdwXZR7Iq5atn-88">
          <mxGeometry width="50" height="50" relative="1" as="geometry">
            <mxPoint x="2438" y="894" as="sourcePoint" />
            <mxPoint x="2488" y="844" as="targetPoint" />
            <Array as="points">
              <mxPoint x="2418" y="884" />
            </Array>
          </mxGeometry>
        </mxCell>
        <mxCell id="N_wnju_bdwXZR7Iq5atn-109" value="" style="group" vertex="1" connectable="0" parent="1">
          <mxGeometry x="2218" y="664" width="164" height="82" as="geometry" />
        </mxCell>
        <mxCell id="N_wnju_bdwXZR7Iq5atn-110" value="Profilkép módosítása" style="rounded=0;whiteSpace=wrap;html=1;" vertex="1" parent="N_wnju_bdwXZR7Iq5atn-109">
          <mxGeometry width="164" height="82" as="geometry" />
        </mxCell>
        <mxCell id="N_wnju_bdwXZR7Iq5atn-111" value="" style="endArrow=none;html=1;rounded=0;exitX=0;exitY=0.25;exitDx=0;exitDy=0;entryX=1;entryY=0.25;entryDx=0;entryDy=0;" edge="1" parent="N_wnju_bdwXZR7Iq5atn-109" source="N_wnju_bdwXZR7Iq5atn-110" target="N_wnju_bdwXZR7Iq5atn-110">
          <mxGeometry width="50" height="50" relative="1" as="geometry">
            <mxPoint x="54.66666666666667" y="68.33333333333333" as="sourcePoint" />
            <mxPoint x="123" as="targetPoint" />
          </mxGeometry>
        </mxCell>
        <mxCell id="N_wnju_bdwXZR7Iq5atn-112" value="" style="endArrow=none;html=1;rounded=0;exitX=0.25;exitY=0;exitDx=0;exitDy=0;" edge="1" parent="N_wnju_bdwXZR7Iq5atn-109" source="N_wnju_bdwXZR7Iq5atn-110">
          <mxGeometry width="50" height="50" relative="1" as="geometry">
            <mxPoint x="41" y="-6.833333333333334" as="sourcePoint" />
            <mxPoint x="41" y="20.5" as="targetPoint" />
          </mxGeometry>
        </mxCell>
        <mxCell id="N_wnju_bdwXZR7Iq5atn-113" value="&lt;font style=&quot;font-size: 11px;&quot;&gt;4&lt;/font&gt;" style="text;html=1;align=center;verticalAlign=middle;resizable=0;points=[];autosize=1;strokeColor=none;fillColor=none;" vertex="1" parent="N_wnju_bdwXZR7Iq5atn-109">
          <mxGeometry x="10" y="-4" width="26" height="28" as="geometry" />
        </mxCell>
        <mxCell id="N_wnju_bdwXZR7Iq5atn-115" value="" style="endArrow=classic;html=1;rounded=0;exitX=0.5;exitY=0;exitDx=0;exitDy=0;" edge="1" parent="1" source="N_wnju_bdwXZR7Iq5atn-16">
          <mxGeometry width="50" height="50" relative="1" as="geometry">
            <mxPoint x="2538" y="764" as="sourcePoint" />
            <mxPoint x="2300" y="744" as="targetPoint" />
          </mxGeometry>
        </mxCell>
        <mxCell id="N_wnju_bdwXZR7Iq5atn-116" value="" style="endArrow=classic;html=1;rounded=0;exitX=1;exitY=0.5;exitDx=0;exitDy=0;" edge="1" parent="1" source="N_wnju_bdwXZR7Iq5atn-110">
          <mxGeometry width="50" height="50" relative="1" as="geometry">
            <mxPoint x="2408" y="705" as="sourcePoint" />
            <mxPoint x="2435.871794871795" y="924" as="targetPoint" />
            <Array as="points">
              <mxPoint x="2434" y="705" />
            </Array>
          </mxGeometry>
        </mxCell>
        <mxCell id="N_wnju_bdwXZR7Iq5atn-117" value="" style="endArrow=classic;html=1;rounded=0;entryX=0.227;entryY=1.004;entryDx=0;entryDy=0;exitX=1;exitY=0.059;exitDx=0;exitDy=0;exitPerimeter=0;entryPerimeter=0;" edge="1" parent="1" source="N_wnju_bdwXZR7Iq5atn-10" target="N_wnju_bdwXZR7Iq5atn-27">
          <mxGeometry width="50" height="50" relative="1" as="geometry">
            <mxPoint x="2508" y="1134" as="sourcePoint" />
            <mxPoint x="2558" y="1084" as="targetPoint" />
            <Array as="points">
              <mxPoint x="2498" y="1177" />
            </Array>
          </mxGeometry>
        </mxCell>
        <mxCell id="N_wnju_bdwXZR7Iq5atn-118" value="&lt;span style=&quot;text-wrap: wrap;&quot;&gt;megtekintés/készítés/törlés&lt;/span&gt;" style="text;html=1;align=center;verticalAlign=middle;resizable=0;points=[];autosize=1;strokeColor=none;fillColor=none;rotation=-90;" vertex="1" parent="1">
          <mxGeometry x="2398" y="1050" width="170" height="30" as="geometry" />
        </mxCell>
        <mxCell id="N_wnju_bdwXZR7Iq5atn-119" value="" style="group" vertex="1" connectable="0" parent="1">
          <mxGeometry x="2457" y="544" width="157" height="30.000000000000057" as="geometry" />
        </mxCell>
        <mxCell id="N_wnju_bdwXZR7Iq5atn-120" value="&amp;nbsp;L2" style="html=1;dashed=0;whiteSpace=wrap;shape=mxgraph.dfd.dataStoreID;align=left;spacingLeft=3;points=[[0,0],[0.5,0],[1,0],[0,0.5],[1,0.5],[0,1],[0.5,1],[1,1]];" vertex="1" parent="N_wnju_bdwXZR7Iq5atn-119">
          <mxGeometry width="152" height="30" as="geometry" />
        </mxCell>
        <mxCell id="N_wnju_bdwXZR7Iq5atn-121" value="" style="endArrow=none;html=1;rounded=0;entryX=0.078;entryY=0.005;entryDx=0;entryDy=0;entryPerimeter=0;exitX=0.077;exitY=1.001;exitDx=0;exitDy=0;exitPerimeter=0;" edge="1" parent="N_wnju_bdwXZR7Iq5atn-119">
          <mxGeometry width="50" height="50" relative="1" as="geometry">
            <mxPoint x="4.699999999999932" y="30.000000000000057" as="sourcePoint" />
            <mxPoint x="4.7999999999999545" y="0.12000000000000455" as="targetPoint" />
          </mxGeometry>
        </mxCell>
        <mxCell id="N_wnju_bdwXZR7Iq5atn-122" value="Posztok" style="text;html=1;align=center;verticalAlign=middle;resizable=0;points=[];autosize=1;strokeColor=none;fillColor=none;" vertex="1" parent="N_wnju_bdwXZR7Iq5atn-119">
          <mxGeometry x="57" width="70" height="30" as="geometry" />
        </mxCell>
        <mxCell id="N_wnju_bdwXZR7Iq5atn-123" value="" style="group" vertex="1" connectable="0" parent="1">
          <mxGeometry x="2698" y="494" width="157" height="30.000000000000057" as="geometry" />
        </mxCell>
        <mxCell id="N_wnju_bdwXZR7Iq5atn-124" value="&amp;nbsp;L3" style="html=1;dashed=0;whiteSpace=wrap;shape=mxgraph.dfd.dataStoreID;align=left;spacingLeft=3;points=[[0,0],[0.5,0],[1,0],[0,0.5],[1,0.5],[0,1],[0.5,1],[1,1]];" vertex="1" parent="N_wnju_bdwXZR7Iq5atn-123">
          <mxGeometry width="152" height="30" as="geometry" />
        </mxCell>
        <mxCell id="N_wnju_bdwXZR7Iq5atn-125" value="" style="endArrow=none;html=1;rounded=0;entryX=0.078;entryY=0.005;entryDx=0;entryDy=0;entryPerimeter=0;exitX=0.077;exitY=1.001;exitDx=0;exitDy=0;exitPerimeter=0;" edge="1" parent="N_wnju_bdwXZR7Iq5atn-123">
          <mxGeometry width="50" height="50" relative="1" as="geometry">
            <mxPoint x="4.699999999999932" y="30.000000000000057" as="sourcePoint" />
            <mxPoint x="4.7999999999999545" y="0.12000000000000455" as="targetPoint" />
          </mxGeometry>
        </mxCell>
        <mxCell id="N_wnju_bdwXZR7Iq5atn-126" value="Hozzászólások" style="text;html=1;align=center;verticalAlign=middle;resizable=0;points=[];autosize=1;strokeColor=none;fillColor=none;" vertex="1" parent="N_wnju_bdwXZR7Iq5atn-123">
          <mxGeometry x="42" y="1" width="100" height="28" as="geometry" />
        </mxCell>
        <mxCell id="N_wnju_bdwXZR7Iq5atn-127" value="" style="endArrow=classic;html=1;rounded=0;entryX=0.385;entryY=1.017;entryDx=0;entryDy=0;entryPerimeter=0;exitX=0.5;exitY=0;exitDx=0;exitDy=0;" edge="1" parent="1" source="N_wnju_bdwXZR7Iq5atn-33" target="N_wnju_bdwXZR7Iq5atn-126">
          <mxGeometry width="50" height="50" relative="1" as="geometry">
            <mxPoint x="2780.31" y="604.99" as="sourcePoint" />
            <mxPoint x="2779.69" y="544.0000000000001" as="targetPoint" />
          </mxGeometry>
        </mxCell>
        <mxCell id="N_wnju_bdwXZR7Iq5atn-128" value="" style="endArrow=classic;html=1;rounded=0;exitX=0;exitY=0.5;exitDx=0;exitDy=0;entryX=0.585;entryY=0;entryDx=0;entryDy=0;entryPerimeter=0;" edge="1" parent="1" source="N_wnju_bdwXZR7Iq5atn-124" target="N_wnju_bdwXZR7Iq5atn-27">
          <mxGeometry width="50" height="50" relative="1" as="geometry">
            <mxPoint x="2598" y="414" as="sourcePoint" />
            <mxPoint x="2648" y="364" as="targetPoint" />
            <Array as="points">
              <mxPoint x="2698" y="594" />
              <mxPoint x="2558" y="594" />
            </Array>
          </mxGeometry>
        </mxCell>
        <mxCell id="N_wnju_bdwXZR7Iq5atn-129" value="" style="endArrow=classic;html=1;rounded=0;exitX=1.009;exitY=0.155;exitDx=0;exitDy=0;entryX=0.527;entryY=1.005;entryDx=0;entryDy=0;exitPerimeter=0;entryPerimeter=0;" edge="1" parent="1" target="N_wnju_bdwXZR7Iq5atn-74">
          <mxGeometry width="50" height="50" relative="1" as="geometry">
            <mxPoint x="2461.996" y="1200.7133333333334" as="sourcePoint" />
            <mxPoint x="2616.52" y="1210" as="targetPoint" />
            <Array as="points">
              <mxPoint x="2616.52" y="1200" />
              <mxPoint x="2617" y="990" />
              <mxPoint x="2853" y="990" />
            </Array>
          </mxGeometry>
        </mxCell>
        <mxCell id="N_wnju_bdwXZR7Iq5atn-130" value="" style="group" vertex="1" connectable="0" parent="1">
          <mxGeometry x="2841" y="1048.5" width="120" height="80" as="geometry" />
        </mxCell>
        <mxCell id="N_wnju_bdwXZR7Iq5atn-131" value="Felhasználó" style="ellipse;whiteSpace=wrap;html=1;" vertex="1" parent="N_wnju_bdwXZR7Iq5atn-130">
          <mxGeometry width="120" height="80" as="geometry" />
        </mxCell>
        <mxCell id="N_wnju_bdwXZR7Iq5atn-132" value="" style="endArrow=none;html=1;rounded=0;exitX=0.009;exitY=0.595;exitDx=0;exitDy=0;exitPerimeter=0;entryX=0.426;entryY=0.004;entryDx=0;entryDy=0;entryPerimeter=0;" edge="1" parent="N_wnju_bdwXZR7Iq5atn-130" source="N_wnju_bdwXZR7Iq5atn-131" target="N_wnju_bdwXZR7Iq5atn-131">
          <mxGeometry width="50" height="50" relative="1" as="geometry">
            <mxPoint y="50" as="sourcePoint" />
            <mxPoint x="50" as="targetPoint" />
          </mxGeometry>
        </mxCell>
        <mxCell id="N_wnju_bdwXZR7Iq5atn-133" value="" style="endArrow=classic;html=1;rounded=0;exitX=0.75;exitY=1;exitDx=0;exitDy=0;entryX=0;entryY=0;entryDx=0;entryDy=0;" edge="1" parent="1" source="N_wnju_bdwXZR7Iq5atn-74" target="N_wnju_bdwXZR7Iq5atn-131">
          <mxGeometry width="50" height="50" relative="1" as="geometry">
            <mxPoint x="2694" y="1002.5" as="sourcePoint" />
            <mxPoint x="2908.48" y="952.5" as="targetPoint" />
            <Array as="points">
              <mxPoint x="2890" y="1000.5" />
              <mxPoint x="2859" y="1000.5" />
            </Array>
          </mxGeometry>
        </mxCell>
        <mxCell id="N_wnju_bdwXZR7Iq5atn-134" value="" style="endArrow=classic;html=1;rounded=0;exitX=1;exitY=0.5;exitDx=0;exitDy=0;" edge="1" parent="1" source="N_wnju_bdwXZR7Iq5atn-10">
          <mxGeometry width="50" height="50" relative="1" as="geometry">
            <mxPoint x="2528" y="1304" as="sourcePoint" />
            <mxPoint x="2789" y="1213" as="targetPoint" />
          </mxGeometry>
        </mxCell>
        <mxCell id="N_wnju_bdwXZR7Iq5atn-135" value="" style="endArrow=classic;html=1;rounded=0;exitX=1;exitY=0.25;exitDx=0;exitDy=0;entryX=0;entryY=0.5;entryDx=0;entryDy=0;" edge="1" parent="1" target="N_wnju_bdwXZR7Iq5atn-137">
          <mxGeometry width="50" height="50" relative="1" as="geometry">
            <mxPoint x="2958" y="1178" as="sourcePoint" />
            <mxPoint x="3084" y="1177.5" as="targetPoint" />
          </mxGeometry>
        </mxCell>
        <mxCell id="N_wnju_bdwXZR7Iq5atn-136" value="" style="group" vertex="1" connectable="0" parent="1">
          <mxGeometry x="3088" y="1162.5" width="157" height="30.000000000000057" as="geometry" />
        </mxCell>
        <mxCell id="N_wnju_bdwXZR7Iq5atn-137" value="&amp;nbsp;L4" style="html=1;dashed=0;whiteSpace=wrap;shape=mxgraph.dfd.dataStoreID;align=left;spacingLeft=3;points=[[0,0],[0.5,0],[1,0],[0,0.5],[1,0.5],[0,1],[0.5,1],[1,1]];" vertex="1" parent="N_wnju_bdwXZR7Iq5atn-136">
          <mxGeometry width="152" height="30" as="geometry" />
        </mxCell>
        <mxCell id="N_wnju_bdwXZR7Iq5atn-138" value="" style="endArrow=none;html=1;rounded=0;entryX=0.078;entryY=0.005;entryDx=0;entryDy=0;entryPerimeter=0;exitX=0.077;exitY=1.001;exitDx=0;exitDy=0;exitPerimeter=0;" edge="1" parent="N_wnju_bdwXZR7Iq5atn-136">
          <mxGeometry width="50" height="50" relative="1" as="geometry">
            <mxPoint x="4.699999999999932" y="30.000000000000057" as="sourcePoint" />
            <mxPoint x="4.7999999999999545" y="0.12000000000000455" as="targetPoint" />
          </mxGeometry>
        </mxCell>
        <mxCell id="N_wnju_bdwXZR7Iq5atn-139" value="Képek" style="text;html=1;align=center;verticalAlign=middle;resizable=0;points=[];autosize=1;strokeColor=none;fillColor=none;" vertex="1" parent="N_wnju_bdwXZR7Iq5atn-136">
          <mxGeometry x="62" width="60" height="30" as="geometry" />
        </mxCell>
        <mxCell id="N_wnju_bdwXZR7Iq5atn-140" value="" style="endArrow=classic;html=1;rounded=0;exitX=1;exitY=0.75;exitDx=0;exitDy=0;entryX=-0.006;entryY=0.619;entryDx=0;entryDy=0;entryPerimeter=0;" edge="1" parent="1" source="N_wnju_bdwXZR7Iq5atn-10" target="N_wnju_bdwXZR7Iq5atn-57">
          <mxGeometry width="50" height="50" relative="1" as="geometry">
            <mxPoint x="2598" y="1294" as="sourcePoint" />
            <mxPoint x="2688" y="1324" as="targetPoint" />
            <Array as="points">
              <mxPoint x="2578" y="1234" />
              <mxPoint x="2578" y="1324" />
            </Array>
          </mxGeometry>
        </mxCell>
        <mxCell id="N_wnju_bdwXZR7Iq5atn-141" value="&lt;span style=&quot;text-align: center;&quot;&gt;feltöltés/letörlés&lt;/span&gt;" style="text;whiteSpace=wrap;html=1;" vertex="1" parent="1">
          <mxGeometry x="2645" y="1188" width="120" height="40" as="geometry" />
        </mxCell>
        <mxCell id="N_wnju_bdwXZR7Iq5atn-142" value="&lt;span style=&quot;color: rgb(0, 0, 0); font-family: Helvetica; font-size: 12px; font-style: normal; font-variant-ligatures: normal; font-variant-caps: normal; font-weight: 400; letter-spacing: normal; orphans: 2; text-align: center; text-indent: 0px; text-transform: none; widows: 2; word-spacing: 0px; -webkit-text-stroke-width: 0px; white-space: normal; background-color: rgb(251, 251, 251); text-decoration-thickness: initial; text-decoration-style: initial; text-decoration-color: initial; display: inline !important; float: none;&quot;&gt;létrehozás/törlés&lt;/span&gt;" style="text;whiteSpace=wrap;html=1;rotation=0;" vertex="1" parent="1">
          <mxGeometry x="2687" y="1294" width="120" height="40" as="geometry" />
        </mxCell>
        <mxCell id="N_wnju_bdwXZR7Iq5atn-143" value="" style="endArrow=classic;html=1;rounded=0;entryX=0.5;entryY=0;entryDx=0;entryDy=0;" edge="1" parent="1" source="N_wnju_bdwXZR7Iq5atn-139" target="N_wnju_bdwXZR7Iq5atn-57">
          <mxGeometry width="50" height="50" relative="1" as="geometry">
            <mxPoint x="3054" y="1282.5" as="sourcePoint" />
            <mxPoint x="3104" y="1232.5" as="targetPoint" />
            <Array as="points">
              <mxPoint x="3181" y="1242.5" />
              <mxPoint x="2876" y="1242.5" />
            </Array>
          </mxGeometry>
        </mxCell>
        <mxCell id="N_wnju_bdwXZR7Iq5atn-144" value="&lt;span style=&quot;color: rgb(0, 0, 0); font-family: Helvetica; font-size: 12px; font-style: normal; font-variant-ligatures: normal; font-variant-caps: normal; font-weight: 400; letter-spacing: normal; orphans: 2; text-align: center; text-indent: 0px; text-transform: none; widows: 2; word-spacing: 0px; -webkit-text-stroke-width: 0px; white-space: normal; background-color: rgb(251, 251, 251); text-decoration-thickness: initial; text-decoration-style: initial; text-decoration-color: initial; display: inline !important; float: none;&quot;&gt;létrehozás/törlés&lt;/span&gt;" style="text;whiteSpace=wrap;html=1;rotation=-90;" vertex="1" parent="1">
          <mxGeometry x="2495" y="1006" width="120" height="40" as="geometry" />
        </mxCell>
        <mxCell id="N_wnju_bdwXZR7Iq5atn-145" value="" style="endArrow=classic;html=1;rounded=0;exitX=0.25;exitY=1;exitDx=0;exitDy=0;entryX=1;entryY=0.5;entryDx=0;entryDy=0;" edge="1" parent="1" source="N_wnju_bdwXZR7Iq5atn-10" target="N_wnju_bdwXZR7Iq5atn-69">
          <mxGeometry width="50" height="50" relative="1" as="geometry">
            <mxPoint x="2248" y="1354" as="sourcePoint" />
            <mxPoint x="2298" y="1304" as="targetPoint" />
            <Array as="points">
              <mxPoint x="2339" y="1324" />
            </Array>
          </mxGeometry>
        </mxCell>
        <mxCell id="N_wnju_bdwXZR7Iq5atn-146" value="" style="endArrow=classic;html=1;rounded=0;exitX=0.25;exitY=1;exitDx=0;exitDy=0;entryX=0.5;entryY=0;entryDx=0;entryDy=0;" edge="1" parent="1" source="N_wnju_bdwXZR7Iq5atn-69" target="N_wnju_bdwXZR7Iq5atn-148">
          <mxGeometry width="50" height="50" relative="1" as="geometry">
            <mxPoint x="1888" y="1454" as="sourcePoint" />
            <mxPoint x="1960" y="1424" as="targetPoint" />
          </mxGeometry>
        </mxCell>
        <mxCell id="N_wnju_bdwXZR7Iq5atn-147" value="" style="group" vertex="1" connectable="0" parent="1">
          <mxGeometry x="1858" y="1434" width="120" height="80" as="geometry" />
        </mxCell>
        <mxCell id="N_wnju_bdwXZR7Iq5atn-148" value="Felhasználó" style="ellipse;whiteSpace=wrap;html=1;" vertex="1" parent="N_wnju_bdwXZR7Iq5atn-147">
          <mxGeometry width="120" height="80" as="geometry" />
        </mxCell>
        <mxCell id="N_wnju_bdwXZR7Iq5atn-149" value="" style="endArrow=none;html=1;rounded=0;exitX=0.009;exitY=0.595;exitDx=0;exitDy=0;exitPerimeter=0;entryX=0.426;entryY=0.004;entryDx=0;entryDy=0;entryPerimeter=0;" edge="1" parent="N_wnju_bdwXZR7Iq5atn-147" source="N_wnju_bdwXZR7Iq5atn-148" target="N_wnju_bdwXZR7Iq5atn-148">
          <mxGeometry width="50" height="50" relative="1" as="geometry">
            <mxPoint y="50" as="sourcePoint" />
            <mxPoint x="50" as="targetPoint" />
          </mxGeometry>
        </mxCell>
        <mxCell id="N_wnju_bdwXZR7Iq5atn-150" value="" style="endArrow=classic;html=1;rounded=0;exitX=0.5;exitY=1;exitDx=0;exitDy=0;entryX=0.5;entryY=0;entryDx=0;entryDy=0;" edge="1" parent="1" source="N_wnju_bdwXZR7Iq5atn-45" target="N_wnju_bdwXZR7Iq5atn-131">
          <mxGeometry width="50" height="50" relative="1" as="geometry">
            <mxPoint x="2954" y="952.5" as="sourcePoint" />
            <mxPoint x="3004" y="902.5" as="targetPoint" />
            <Array as="points">
              <mxPoint x="3041" y="998.5" />
              <mxPoint x="2945" y="998.5" />
              <mxPoint x="2901" y="998.5" />
            </Array>
          </mxGeometry>
        </mxCell>
        <mxCell id="N_wnju_bdwXZR7Iq5atn-151" value="" style="group" vertex="1" connectable="0" parent="1">
          <mxGeometry x="2994" y="1102.5" width="157" height="30.000000000000057" as="geometry" />
        </mxCell>
        <mxCell id="N_wnju_bdwXZR7Iq5atn-152" value="&amp;nbsp;L5" style="html=1;dashed=0;whiteSpace=wrap;shape=mxgraph.dfd.dataStoreID;align=left;spacingLeft=3;points=[[0,0],[0.5,0],[1,0],[0,0.5],[1,0.5],[0,1],[0.5,1],[1,1]];" vertex="1" parent="N_wnju_bdwXZR7Iq5atn-151">
          <mxGeometry width="152" height="30" as="geometry" />
        </mxCell>
        <mxCell id="N_wnju_bdwXZR7Iq5atn-153" value="" style="endArrow=none;html=1;rounded=0;entryX=0.078;entryY=0.005;entryDx=0;entryDy=0;entryPerimeter=0;exitX=0.077;exitY=1.001;exitDx=0;exitDy=0;exitPerimeter=0;" edge="1" parent="N_wnju_bdwXZR7Iq5atn-151">
          <mxGeometry width="50" height="50" relative="1" as="geometry">
            <mxPoint x="4.699999999999932" y="30.000000000000057" as="sourcePoint" />
            <mxPoint x="4.7999999999999545" y="0.12000000000000455" as="targetPoint" />
          </mxGeometry>
        </mxCell>
        <mxCell id="N_wnju_bdwXZR7Iq5atn-154" value="Értesítések" style="text;html=1;align=center;verticalAlign=middle;resizable=0;points=[];autosize=1;strokeColor=none;fillColor=none;" vertex="1" parent="N_wnju_bdwXZR7Iq5atn-151">
          <mxGeometry x="52" width="80" height="30" as="geometry" />
        </mxCell>
        <mxCell id="N_wnju_bdwXZR7Iq5atn-155" value="" style="group" vertex="1" connectable="0" parent="1">
          <mxGeometry x="2801" y="1404" width="157" height="30.000000000000057" as="geometry" />
        </mxCell>
        <mxCell id="N_wnju_bdwXZR7Iq5atn-156" value="&amp;nbsp;L6" style="html=1;dashed=0;whiteSpace=wrap;shape=mxgraph.dfd.dataStoreID;align=left;spacingLeft=3;points=[[0,0],[0.5,0],[1,0],[0,0.5],[1,0.5],[0,1],[0.5,1],[1,1]];" vertex="1" parent="N_wnju_bdwXZR7Iq5atn-155">
          <mxGeometry width="152" height="30" as="geometry" />
        </mxCell>
        <mxCell id="N_wnju_bdwXZR7Iq5atn-157" value="" style="endArrow=none;html=1;rounded=0;entryX=0.078;entryY=0.005;entryDx=0;entryDy=0;entryPerimeter=0;exitX=0.077;exitY=1.001;exitDx=0;exitDy=0;exitPerimeter=0;" edge="1" parent="N_wnju_bdwXZR7Iq5atn-155">
          <mxGeometry width="50" height="50" relative="1" as="geometry">
            <mxPoint x="4.699999999999932" y="30.000000000000057" as="sourcePoint" />
            <mxPoint x="4.7999999999999545" y="0.12000000000000455" as="targetPoint" />
          </mxGeometry>
        </mxCell>
        <mxCell id="N_wnju_bdwXZR7Iq5atn-158" value="Albumok" style="text;html=1;align=center;verticalAlign=middle;resizable=0;points=[];autosize=1;strokeColor=none;fillColor=none;" vertex="1" parent="N_wnju_bdwXZR7Iq5atn-155">
          <mxGeometry x="59" y="2" width="66" height="27" as="geometry" />
        </mxCell>
        <mxCell id="N_wnju_bdwXZR7Iq5atn-159" value="" style="endArrow=classic;html=1;rounded=0;exitX=0.5;exitY=1;exitDx=0;exitDy=0;entryX=0.5;entryY=0;entryDx=0;entryDy=0;" edge="1" parent="1" source="N_wnju_bdwXZR7Iq5atn-57" target="N_wnju_bdwXZR7Iq5atn-156">
          <mxGeometry width="50" height="50" relative="1" as="geometry">
            <mxPoint x="3012" y="1409.5" as="sourcePoint" />
            <mxPoint x="3062" y="1359.5" as="targetPoint" />
          </mxGeometry>
        </mxCell>
        <mxCell id="N_wnju_bdwXZR7Iq5atn-160" value="" style="group" vertex="1" connectable="0" parent="1">
          <mxGeometry x="2671" y="1080" width="157" height="30.000000000000057" as="geometry" />
        </mxCell>
        <mxCell id="N_wnju_bdwXZR7Iq5atn-161" value="&amp;nbsp;L7" style="html=1;dashed=0;whiteSpace=wrap;shape=mxgraph.dfd.dataStoreID;align=left;spacingLeft=3;points=[[0,0],[0.5,0],[1,0],[0,0.5],[1,0.5],[0,1],[0.5,1],[1,1]];" vertex="1" parent="N_wnju_bdwXZR7Iq5atn-160">
          <mxGeometry width="152" height="30" as="geometry" />
        </mxCell>
        <mxCell id="N_wnju_bdwXZR7Iq5atn-162" value="" style="endArrow=none;html=1;rounded=0;entryX=0.078;entryY=0.005;entryDx=0;entryDy=0;entryPerimeter=0;exitX=0.077;exitY=1.001;exitDx=0;exitDy=0;exitPerimeter=0;" edge="1" parent="N_wnju_bdwXZR7Iq5atn-160">
          <mxGeometry width="50" height="50" relative="1" as="geometry">
            <mxPoint x="4.699999999999932" y="30.000000000000057" as="sourcePoint" />
            <mxPoint x="4.7999999999999545" y="0.12000000000000455" as="targetPoint" />
          </mxGeometry>
        </mxCell>
        <mxCell id="N_wnju_bdwXZR7Iq5atn-163" value="Csoportok" style="text;html=1;align=center;verticalAlign=middle;resizable=0;points=[];autosize=1;strokeColor=none;fillColor=none;" vertex="1" parent="N_wnju_bdwXZR7Iq5atn-160">
          <mxGeometry x="55" y="2" width="74" height="27" as="geometry" />
        </mxCell>
        <mxCell id="N_wnju_bdwXZR7Iq5atn-164" value="" style="endArrow=classic;html=1;rounded=0;entryX=0;entryY=0.5;entryDx=0;entryDy=0;" edge="1" parent="1" target="N_wnju_bdwXZR7Iq5atn-161">
          <mxGeometry width="50" height="50" relative="1" as="geometry">
            <mxPoint x="2641" y="936" as="sourcePoint" />
            <mxPoint x="2889" y="1374" as="targetPoint" />
            <Array as="points">
              <mxPoint x="2641" y="1095" />
            </Array>
          </mxGeometry>
        </mxCell>
        <mxCell id="N_wnju_bdwXZR7Iq5atn-165" value="" style="endArrow=classic;html=1;rounded=0;exitX=1;exitY=0.5;exitDx=0;exitDy=0;entryX=0.5;entryY=1;entryDx=0;entryDy=0;" edge="1" parent="1" source="N_wnju_bdwXZR7Iq5atn-27" target="N_wnju_bdwXZR7Iq5atn-33">
          <mxGeometry width="50" height="50" relative="1" as="geometry">
            <mxPoint x="2678" y="738" as="sourcePoint" />
            <mxPoint x="2728" y="688" as="targetPoint" />
            <Array as="points">
              <mxPoint x="2780" y="715" />
            </Array>
          </mxGeometry>
        </mxCell>
        <mxCell id="N_wnju_bdwXZR7Iq5atn-166" value="" style="endArrow=classic;html=1;rounded=0;exitX=0.5;exitY=0;exitDx=0;exitDy=0;" edge="1" parent="1">
          <mxGeometry width="50" height="50" relative="1" as="geometry">
            <mxPoint x="1915" y="1284" as="sourcePoint" />
            <mxPoint x="1915" y="1206" as="targetPoint" />
          </mxGeometry>
        </mxCell>
        <mxCell id="N_wnju_bdwXZR7Iq5atn-167" value="" style="group" vertex="1" connectable="0" parent="1">
          <mxGeometry x="1853" y="1176" width="157" height="30.000000000000057" as="geometry" />
        </mxCell>
        <mxCell id="N_wnju_bdwXZR7Iq5atn-168" value="&amp;nbsp;L8" style="html=1;dashed=0;whiteSpace=wrap;shape=mxgraph.dfd.dataStoreID;align=left;spacingLeft=3;points=[[0,0],[0.5,0],[1,0],[0,0.5],[1,0.5],[0,1],[0.5,1],[1,1]];" vertex="1" parent="N_wnju_bdwXZR7Iq5atn-167">
          <mxGeometry width="152" height="30" as="geometry" />
        </mxCell>
        <mxCell id="N_wnju_bdwXZR7Iq5atn-169" value="" style="endArrow=none;html=1;rounded=0;entryX=0.078;entryY=0.005;entryDx=0;entryDy=0;entryPerimeter=0;exitX=0.077;exitY=1.001;exitDx=0;exitDy=0;exitPerimeter=0;" edge="1" parent="N_wnju_bdwXZR7Iq5atn-167">
          <mxGeometry width="50" height="50" relative="1" as="geometry">
            <mxPoint x="4.699999999999932" y="30.000000000000057" as="sourcePoint" />
            <mxPoint x="4.7999999999999545" y="0.12000000000000455" as="targetPoint" />
          </mxGeometry>
        </mxCell>
        <mxCell id="N_wnju_bdwXZR7Iq5atn-170" value="Ismerősök" style="text;html=1;align=center;verticalAlign=middle;resizable=0;points=[];autosize=1;strokeColor=none;fillColor=none;" vertex="1" parent="N_wnju_bdwXZR7Iq5atn-167">
          <mxGeometry x="55" y="2" width="74" height="27" as="geometry" />
        </mxCell>
        <mxCell id="N_wnju_bdwXZR7Iq5atn-171" value="" style="group" vertex="1" connectable="0" parent="1">
          <mxGeometry x="2675" y="1008" width="157" height="30.000000000000057" as="geometry" />
        </mxCell>
        <mxCell id="N_wnju_bdwXZR7Iq5atn-172" value="&amp;nbsp;L8" style="html=1;dashed=0;whiteSpace=wrap;shape=mxgraph.dfd.dataStoreID;align=left;spacingLeft=3;points=[[0,0],[0.5,0],[1,0],[0,0.5],[1,0.5],[0,1],[0.5,1],[1,1]];" vertex="1" parent="N_wnju_bdwXZR7Iq5atn-171">
          <mxGeometry width="152" height="30" as="geometry" />
        </mxCell>
        <mxCell id="N_wnju_bdwXZR7Iq5atn-173" value="" style="endArrow=none;html=1;rounded=0;entryX=0.078;entryY=0.005;entryDx=0;entryDy=0;entryPerimeter=0;exitX=0.077;exitY=1.001;exitDx=0;exitDy=0;exitPerimeter=0;" edge="1" parent="N_wnju_bdwXZR7Iq5atn-171">
          <mxGeometry width="50" height="50" relative="1" as="geometry">
            <mxPoint x="4.699999999999932" y="30.000000000000057" as="sourcePoint" />
            <mxPoint x="4.7999999999999545" y="0.12000000000000455" as="targetPoint" />
          </mxGeometry>
        </mxCell>
        <mxCell id="N_wnju_bdwXZR7Iq5atn-174" value="Üzenetek" style="text;html=1;align=center;verticalAlign=middle;resizable=0;points=[];autosize=1;strokeColor=none;fillColor=none;" vertex="1" parent="N_wnju_bdwXZR7Iq5atn-171">
          <mxGeometry x="57" y="2" width="70" height="27" as="geometry" />
        </mxCell>
        <mxCell id="N_wnju_bdwXZR7Iq5atn-175" value="" style="endArrow=classic;startArrow=classic;html=1;rounded=0;exitX=0.75;exitY=1;exitDx=0;exitDy=0;entryX=0;entryY=0.5;entryDx=0;entryDy=0;" edge="1" parent="1" source="N_wnju_bdwXZR7Iq5atn-27" target="N_wnju_bdwXZR7Iq5atn-39">
          <mxGeometry width="50" height="50" relative="1" as="geometry">
            <mxPoint x="2691" y="744.5" as="sourcePoint" />
            <mxPoint x="2740" y="773.5" as="targetPoint" />
            <Array as="points">
              <mxPoint x="2585" y="788" />
            </Array>
          </mxGeometry>
        </mxCell>
        <mxCell id="N_wnju_bdwXZR7Iq5atn-176" value="" style="endArrow=classic;html=1;rounded=0;exitX=0.5;exitY=0;exitDx=0;exitDy=0;entryX=0.998;entryY=0.615;entryDx=0;entryDy=0;entryPerimeter=0;" edge="1" parent="1" source="N_wnju_bdwXZR7Iq5atn-137" target="N_wnju_bdwXZR7Iq5atn-27">
          <mxGeometry width="50" height="50" relative="1" as="geometry">
            <mxPoint x="3171" y="1069.5" as="sourcePoint" />
            <mxPoint x="2732" y="724" as="targetPoint" />
            <Array as="points">
              <mxPoint x="3165" y="724.5" />
            </Array>
          </mxGeometry>
        </mxCell>
        <mxCell id="N_wnju_bdwXZR7Iq5atn-177" value="&lt;span style=&quot;text-wrap: wrap;&quot;&gt;&amp;nbsp;jelölés/megtekintés/törlés&lt;/span&gt;" style="text;html=1;align=center;verticalAlign=middle;resizable=0;points=[];autosize=1;strokeColor=none;fillColor=none;" vertex="1" parent="1">
          <mxGeometry x="2102" y="1298" width="158" height="28" as="geometry" />
        </mxCell>
        <mxCell id="N_wnju_bdwXZR7Iq5atn-178" value="&lt;span style=&quot;text-wrap: wrap;&quot;&gt;küldés&lt;/span&gt;" style="text;html=1;align=center;verticalAlign=middle;resizable=0;points=[];autosize=1;strokeColor=none;fillColor=none;" vertex="1" parent="1">
          <mxGeometry x="2955" y="994.5" width="54" height="28" as="geometry" />
        </mxCell>
        <mxCell id="N_wnju_bdwXZR7Iq5atn-179" value="&lt;span style=&quot;color: rgb(0, 0, 0); font-family: Helvetica; font-size: 12px; font-style: normal; font-variant-ligatures: normal; font-variant-caps: normal; font-weight: 400; letter-spacing: normal; orphans: 2; text-align: center; text-indent: 0px; text-transform: none; widows: 2; word-spacing: 0px; -webkit-text-stroke-width: 0px; white-space: normal; background-color: rgb(251, 251, 251); text-decoration-thickness: initial; text-decoration-style: initial; text-decoration-color: initial; display: inline !important; float: none;&quot;&gt;küldés&lt;/span&gt;" style="text;whiteSpace=wrap;html=1;rotation=0;" vertex="1" parent="1">
          <mxGeometry x="2773" y="962" width="56" height="30" as="geometry" />
        </mxCell>
        <mxCell id="N_wnju_bdwXZR7Iq5atn-180" value="&lt;span style=&quot;color: rgb(0, 0, 0); font-family: Helvetica; font-size: 12px; font-style: normal; font-variant-ligatures: normal; font-variant-caps: normal; font-weight: 400; letter-spacing: normal; orphans: 2; text-align: center; text-indent: 0px; text-transform: none; widows: 2; word-spacing: 0px; -webkit-text-stroke-width: 0px; white-space: normal; background-color: rgb(251, 251, 251); text-decoration-thickness: initial; text-decoration-style: initial; text-decoration-color: initial; display: inline !important; float: none;&quot;&gt;írás/törlés&lt;/span&gt;" style="text;whiteSpace=wrap;html=1;" vertex="1" parent="1">
          <mxGeometry x="2642" y="690" width="74" height="30" as="geometry" />
        </mxCell>
        <mxCell id="N_wnju_bdwXZR7Iq5atn-181" value="" style="endArrow=classic;html=1;rounded=0;exitX=0;exitY=0.5;exitDx=0;exitDy=0;entryX=1;entryY=0.5;entryDx=0;entryDy=0;" edge="1" parent="1" source="N_wnju_bdwXZR7Iq5atn-16" target="N_wnju_bdwXZR7Iq5atn-183">
          <mxGeometry width="50" height="50" relative="1" as="geometry">
            <mxPoint x="2116" y="894" as="sourcePoint" />
            <mxPoint x="2160" y="865" as="targetPoint" />
          </mxGeometry>
        </mxCell>
        <mxCell id="N_wnju_bdwXZR7Iq5atn-182" value="" style="group" vertex="1" connectable="0" parent="1">
          <mxGeometry x="1996" y="824.0033333333333" width="164" height="82" as="geometry" />
        </mxCell>
        <mxCell id="N_wnju_bdwXZR7Iq5atn-183" value="Profil törlése" style="rounded=0;whiteSpace=wrap;html=1;" vertex="1" parent="N_wnju_bdwXZR7Iq5atn-182">
          <mxGeometry width="164" height="82" as="geometry" />
        </mxCell>
        <mxCell id="N_wnju_bdwXZR7Iq5atn-184" value="" style="endArrow=none;html=1;rounded=0;exitX=0;exitY=0.25;exitDx=0;exitDy=0;entryX=1;entryY=0.25;entryDx=0;entryDy=0;" edge="1" parent="N_wnju_bdwXZR7Iq5atn-182" source="N_wnju_bdwXZR7Iq5atn-183" target="N_wnju_bdwXZR7Iq5atn-183">
          <mxGeometry width="50" height="50" relative="1" as="geometry">
            <mxPoint x="54.66666666666667" y="68.33333333333333" as="sourcePoint" />
            <mxPoint x="123" as="targetPoint" />
          </mxGeometry>
        </mxCell>
        <mxCell id="N_wnju_bdwXZR7Iq5atn-185" value="" style="endArrow=none;html=1;rounded=0;exitX=0.25;exitY=0;exitDx=0;exitDy=0;" edge="1" parent="N_wnju_bdwXZR7Iq5atn-182" source="N_wnju_bdwXZR7Iq5atn-183">
          <mxGeometry width="50" height="50" relative="1" as="geometry">
            <mxPoint x="41" y="-6.833333333333334" as="sourcePoint" />
            <mxPoint x="41" y="20.5" as="targetPoint" />
          </mxGeometry>
        </mxCell>
        <mxCell id="N_wnju_bdwXZR7Iq5atn-186" value="&lt;font style=&quot;font-size: 11px;&quot;&gt;3&lt;/font&gt;" style="text;html=1;align=center;verticalAlign=middle;resizable=0;points=[];autosize=1;strokeColor=none;fillColor=none;" vertex="1" parent="N_wnju_bdwXZR7Iq5atn-182">
          <mxGeometry x="10" y="-4" width="26" height="28" as="geometry" />
        </mxCell>
        <mxCell id="N_wnju_bdwXZR7Iq5atn-188" value="" style="endArrow=classic;html=1;rounded=0;exitX=0.5;exitY=0;exitDx=0;exitDy=0;entryX=0.411;entryY=0.018;entryDx=0;entryDy=0;entryPerimeter=0;" edge="1" parent="1" source="N_wnju_bdwXZR7Iq5atn-183" target="N_wnju_bdwXZR7Iq5atn-88">
          <mxGeometry width="50" height="50" relative="1" as="geometry">
            <mxPoint x="2162" y="824" as="sourcePoint" />
            <mxPoint x="2212" y="774" as="targetPoint" />
            <Array as="points">
              <mxPoint x="2078" y="810" />
              <mxPoint x="2398" y="810" />
            </Array>
          </mxGeometry>
        </mxCell>
        <mxCell id="N_wnju_bdwXZR7Iq5atn-189" value="" style="group" vertex="1" connectable="0" parent="1">
          <mxGeometry x="1976" y="1552.0033333333333" width="164" height="82" as="geometry" />
        </mxCell>
        <mxCell id="N_wnju_bdwXZR7Iq5atn-190" value="Felhasználó kezelése" style="rounded=0;whiteSpace=wrap;html=1;" vertex="1" parent="N_wnju_bdwXZR7Iq5atn-189">
          <mxGeometry width="164" height="82" as="geometry" />
        </mxCell>
        <mxCell id="N_wnju_bdwXZR7Iq5atn-191" value="" style="endArrow=none;html=1;rounded=0;exitX=0;exitY=0.25;exitDx=0;exitDy=0;entryX=1;entryY=0.25;entryDx=0;entryDy=0;" edge="1" parent="N_wnju_bdwXZR7Iq5atn-189" source="N_wnju_bdwXZR7Iq5atn-190" target="N_wnju_bdwXZR7Iq5atn-190">
          <mxGeometry width="50" height="50" relative="1" as="geometry">
            <mxPoint x="54.66666666666667" y="68.33333333333333" as="sourcePoint" />
            <mxPoint x="123" as="targetPoint" />
          </mxGeometry>
        </mxCell>
        <mxCell id="N_wnju_bdwXZR7Iq5atn-192" value="" style="endArrow=none;html=1;rounded=0;exitX=0.25;exitY=0;exitDx=0;exitDy=0;" edge="1" parent="N_wnju_bdwXZR7Iq5atn-189" source="N_wnju_bdwXZR7Iq5atn-190">
          <mxGeometry width="50" height="50" relative="1" as="geometry">
            <mxPoint x="41" y="-6.833333333333334" as="sourcePoint" />
            <mxPoint x="41" y="20.5" as="targetPoint" />
          </mxGeometry>
        </mxCell>
        <mxCell id="N_wnju_bdwXZR7Iq5atn-193" value="&lt;font style=&quot;font-size: 11px;&quot;&gt;14&lt;/font&gt;" style="text;html=1;align=center;verticalAlign=middle;resizable=0;points=[];autosize=1;strokeColor=none;fillColor=none;" vertex="1" parent="N_wnju_bdwXZR7Iq5atn-189">
          <mxGeometry x="7" y="-4" width="32" height="28" as="geometry" />
        </mxCell>
        <mxCell id="N_wnju_bdwXZR7Iq5atn-194" value="" style="endArrow=classic;html=1;rounded=0;exitX=0.378;exitY=1;exitDx=0;exitDy=0;exitPerimeter=0;entryX=0.25;entryY=0;entryDx=0;entryDy=0;" edge="1" parent="1" source="N_wnju_bdwXZR7Iq5atn-10" target="N_wnju_bdwXZR7Iq5atn-190">
          <mxGeometry width="50" height="50" relative="1" as="geometry">
            <mxPoint x="2236" y="1432" as="sourcePoint" />
            <mxPoint x="2286" y="1382" as="targetPoint" />
            <Array as="points">
              <mxPoint x="2360" y="1388" />
              <mxPoint x="2017" y="1388" />
            </Array>
          </mxGeometry>
        </mxCell>
        <mxCell id="N_wnju_bdwXZR7Iq5atn-195" value="" style="group" vertex="1" connectable="0" parent="1">
          <mxGeometry x="2203" y="1578" width="157" height="30.000000000000057" as="geometry" />
        </mxCell>
        <mxCell id="N_wnju_bdwXZR7Iq5atn-196" value="&amp;nbsp;L9" style="html=1;dashed=0;whiteSpace=wrap;shape=mxgraph.dfd.dataStoreID;align=left;spacingLeft=3;points=[[0,0],[0.5,0],[1,0],[0,0.5],[1,0.5],[0,1],[0.5,1],[1,1]];" vertex="1" parent="N_wnju_bdwXZR7Iq5atn-195">
          <mxGeometry width="152" height="30" as="geometry" />
        </mxCell>
        <mxCell id="N_wnju_bdwXZR7Iq5atn-197" value="" style="endArrow=none;html=1;rounded=0;entryX=0.078;entryY=0.005;entryDx=0;entryDy=0;entryPerimeter=0;exitX=0.077;exitY=1.001;exitDx=0;exitDy=0;exitPerimeter=0;" edge="1" parent="N_wnju_bdwXZR7Iq5atn-195">
          <mxGeometry width="50" height="50" relative="1" as="geometry">
            <mxPoint x="4.699999999999932" y="30.000000000000057" as="sourcePoint" />
            <mxPoint x="4.7999999999999545" y="0.12000000000000455" as="targetPoint" />
          </mxGeometry>
        </mxCell>
        <mxCell id="N_wnju_bdwXZR7Iq5atn-198" value="Felhasználói adatok" style="text;html=1;align=center;verticalAlign=middle;resizable=0;points=[];autosize=1;strokeColor=none;fillColor=none;" vertex="1" parent="N_wnju_bdwXZR7Iq5atn-195">
          <mxGeometry x="27" width="130" height="30" as="geometry" />
        </mxCell>
        <mxCell id="N_wnju_bdwXZR7Iq5atn-199" value="" style="endArrow=classic;html=1;rounded=0;exitX=1;exitY=0.5;exitDx=0;exitDy=0;" edge="1" parent="1" source="N_wnju_bdwXZR7Iq5atn-190">
          <mxGeometry width="50" height="50" relative="1" as="geometry">
            <mxPoint x="2203.74" y="1574.0033333333336" as="sourcePoint" />
            <mxPoint x="2203" y="1593" as="targetPoint" />
          </mxGeometry>
        </mxCell>
        <mxCell id="N_wnju_bdwXZR7Iq5atn-200" value="hozzáadás/törlés" style="text;html=1;align=center;verticalAlign=middle;resizable=0;points=[];autosize=1;strokeColor=none;fillColor=none;" vertex="1" parent="1">
          <mxGeometry x="2746" y="1236.5" width="110" height="28" as="geometry" />
        </mxCell>
        <mxCell id="N_wnju_bdwXZR7Iq5atn-201" value="" style="endArrow=classic;html=1;rounded=0;exitX=0.342;exitY=0.002;exitDx=0;exitDy=0;exitPerimeter=0;entryX=0.341;entryY=1.002;entryDx=0;entryDy=0;entryPerimeter=0;" edge="1" parent="1" source="N_wnju_bdwXZR7Iq5atn-57" target="N_wnju_bdwXZR7Iq5atn-51">
          <mxGeometry width="50" height="50" relative="1" as="geometry">
            <mxPoint x="2848" y="1282.5" as="sourcePoint" />
            <mxPoint x="2850" y="1228.5" as="targetPoint" />
          </mxGeometry>
        </mxCell>
        <mxCell id="N_wnju_bdwXZR7Iq5atn-202" value="" style="endArrow=classic;html=1;rounded=0;entryX=0.75;entryY=1;entryDx=0;entryDy=0;" edge="1" parent="1" source="N_wnju_bdwXZR7Iq5atn-154" target="N_wnju_bdwXZR7Iq5atn-45">
          <mxGeometry width="50" height="50" relative="1" as="geometry">
            <mxPoint x="3089" y="1036.5" as="sourcePoint" />
            <mxPoint x="3139" y="986.5" as="targetPoint" />
          </mxGeometry>
        </mxCell>
        <mxCell id="N_wnju_bdwXZR7Iq5atn-203" value="" style="endArrow=classic;html=1;rounded=0;exitX=1.003;exitY=0.183;exitDx=0;exitDy=0;exitPerimeter=0;entryX=0.25;entryY=1;entryDx=0;entryDy=0;" edge="1" parent="1" source="N_wnju_bdwXZR7Iq5atn-10" target="N_wnju_bdwXZR7Iq5atn-63">
          <mxGeometry width="50" height="50" relative="1" as="geometry">
            <mxPoint x="2555" y="1172" as="sourcePoint" />
            <mxPoint x="2605" y="1122" as="targetPoint" />
            <Array as="points">
              <mxPoint x="2563" y="1187" />
            </Array>
          </mxGeometry>
        </mxCell>
        <mxCell id="N_wnju_bdwXZR7Iq5atn-204" value="" style="endArrow=classic;startArrow=classic;html=1;rounded=0;entryX=0.003;entryY=0.51;entryDx=0;entryDy=0;exitX=0.5;exitY=0;exitDx=0;exitDy=0;entryPerimeter=0;" edge="1" parent="1" source="N_wnju_bdwXZR7Iq5atn-172" target="N_wnju_bdwXZR7Iq5atn-74">
          <mxGeometry width="50" height="50" relative="1" as="geometry">
            <mxPoint x="2703" y="994" as="sourcePoint" />
            <mxPoint x="2753" y="944" as="targetPoint" />
            <Array as="points">
              <mxPoint x="2751" y="888" />
            </Array>
          </mxGeometry>
        </mxCell>
        <mxCell id="N_wnju_bdwXZR7Iq5atn-205" value="" style="endArrow=classic;html=1;rounded=0;exitX=0;exitY=0;exitDx=0;exitDy=0;entryX=0.359;entryY=0.998;entryDx=0;entryDy=0;entryPerimeter=0;" edge="1" parent="1" source="N_wnju_bdwXZR7Iq5atn-63" target="N_wnju_bdwXZR7Iq5atn-27">
          <mxGeometry width="50" height="50" relative="1" as="geometry">
            <mxPoint x="2539" y="844" as="sourcePoint" />
            <mxPoint x="2589" y="794" as="targetPoint" />
          </mxGeometry>
        </mxCell>
        <mxCell id="N_wnju_bdwXZR7Iq5atn-206" value="&lt;span style=&quot;text-wrap: wrap;&quot;&gt;megtekintés/&lt;/span&gt;&lt;div&gt;&lt;span style=&quot;text-wrap: wrap;&quot;&gt;készítés/törlés&lt;/span&gt;&lt;/div&gt;" style="text;html=1;align=center;verticalAlign=middle;resizable=0;points=[];autosize=1;strokeColor=none;fillColor=none;rotation=-90;" vertex="1" parent="1">
          <mxGeometry x="2491" y="786" width="96" height="42" as="geometry" />
        </mxCell>
        <mxCell id="N_wnju_bdwXZR7Iq5atn-207" value="" style="endArrow=classic;startArrow=classic;html=1;rounded=0;entryX=0.5;entryY=1;entryDx=0;entryDy=0;exitX=0.25;exitY=0;exitDx=0;exitDy=0;" edge="1" parent="1" target="N_wnju_bdwXZR7Iq5atn-120">
          <mxGeometry width="50" height="50" relative="1" as="geometry">
            <mxPoint x="2532.5" y="674" as="sourcePoint" />
            <mxPoint x="2551" y="604" as="targetPoint" />
          </mxGeometry>
        </mxCell>
      </root>
    </mxGraphModel>
  </diagram>
</mxfile>
